# xmcd
#
# Track frame offsets:
#	150
#	58474
#	101319
#	111958
#	146989
#	173614
#	183925
#	205947
#	236051
#
# Disc length: 3298 seconds
#
# Revision: 0
# Processed by: cddbd v1.5.2PL0 Copyright (c) Steve Scherf et al.
# Submitted via: audiograbber 1.83.01
#
DISCID=820ce009
DTITLE=Various Artist - Edited by The Collagier - Reunited - disc 1
DYEAR=2013
DGENRE=Mixed
TTITLE0=Sebastian Hardie - Openings
TTITLE1=Anekdoten - A Sky About To Rain - Every Step I Take
TTITLE2=Jimmy Reed - Baby, What You Want Me To Do?
TTITLE3=Genesis - There Must Be Some Other Way
TTITLE4=Justin Hayward - Broken Dream
TTITLE5=Simon and Garfunkel - A Hazy Shade Of Winter
TTITLE6=Brendan Perry - Can You Feel It?
TTITLE7=Anekdoten - In For A Ride
TTITLE8=Roy Orbison - How Do You Start Over?
EXTD=A tale of love lost and regained
EXTT0=
EXTT1=
EXTT2=
EXTT3=
EXTT4=
EXTT5=
EXTT6=
EXTT7=
EXTT8=
PLAYORDER=
